name rise30.2954peak35.7071fall66.7804.mot
datacolumns 19
datarows 33
range 18.77828100000000 18.83159600000000
endheader
time	ground_force1_vx	ground_force1_vy	ground_force1_vz	ground_force1_px	ground_force1_py	ground_force1_pz	ground_force2_vx	ground_force2_vy	ground_force2_vz	ground_force2_px	ground_force2_py	ground_force2_pz	ground_torque1_x	ground_torque1_y	ground_torque1_z	ground_torque2_x	ground_torque2_y	ground_torque2_z	
18.77828100000000	4.87132100000000	700.94158900000002	40.94256200000000	0.13497600000000	0.00000000000000	0.11349900000000	0.00000000000000	0.00000000000000	0.00000000000000	0.00000000000000	0.00000000000000	0.00000000000000	0.00000000000000	10.52003200000000	0.00000000000000	0.00000000000000	0.00000000000000	0.00000000000000	
18.77994200000000	4.44317200000000	702.27088400000002	41.04406700000000	0.13402300000000	0.00000000000000	0.11350000000000	0.00000000000000	0.00000000000000	0.00000000000000	0.00000000000000	0.00000000000000	0.00000000000000	0.00000000000000	10.60839200000000	0.00000000000000	0.00000000000000	0.00000000000000	0.00000000000000	
18.78160000000000	4.00183200000000	703.62600199999997	41.15072500000000	0.13306200000000	0.00000000000000	0.11350100000000	0.00000000000000	0.00000000000000	0.00000000000000	0.00000000000000	0.00000000000000	0.00000000000000	0.00000000000000	10.70108500000000	0.00000000000000	0.00000000000000	0.00000000000000	0.00000000000000	
18.78326200000000	3.54697500000000	705.00619400000005	41.26228400000000	0.13209300000000	0.00000000000000	0.11350300000000	0.00000000000000	0.00000000000000	0.00000000000000	0.00000000000000	0.00000000000000	0.00000000000000	0.00000000000000	10.79806300000000	0.00000000000000	0.00000000000000	0.00000000000000	0.00000000000000	
18.78492900000000	3.07831800000000	706.41081899999995	41.37850600000000	0.13111600000000	0.00000000000000	0.11350500000000	0.00000000000000	0.00000000000000	0.00000000000000	0.00000000000000	0.00000000000000	0.00000000000000	0.00000000000000	10.89927100000000	0.00000000000000	0.00000000000000	0.00000000000000	0.00000000000000	
18.78660200000000	2.59561900000000	707.83934499999998	41.49916000000000	0.13013200000000	0.00000000000000	0.11350800000000	0.00000000000000	0.00000000000000	0.00000000000000	0.00000000000000	0.00000000000000	0.00000000000000	0.00000000000000	11.00465000000000	0.00000000000000	0.00000000000000	0.00000000000000	0.00000000000000	
18.78826400000000	2.09867700000000	709.29134299999998	41.62402700000000	0.12913900000000	0.00000000000000	0.11351200000000	0.00000000000000	0.00000000000000	0.00000000000000	0.00000000000000	0.00000000000000	0.00000000000000	0.00000000000000	11.11413400000000	0.00000000000000	0.00000000000000	0.00000000000000	0.00000000000000	
18.78993200000000	1.58733300000000	710.76648200000000	41.75289900000000	0.12814000000000	0.00000000000000	0.11351500000000	0.00000000000000	0.00000000000000	0.00000000000000	0.00000000000000	0.00000000000000	0.00000000000000	0.00000000000000	11.22765100000000	0.00000000000000	0.00000000000000	0.00000000000000	0.00000000000000	
18.79160400000000	1.06147400000000	712.26452500000005	41.88557700000000	0.12713400000000	0.00000000000000	0.11351900000000	0.00000000000000	0.00000000000000	0.00000000000000	0.00000000000000	0.00000000000000	0.00000000000000	0.00000000000000	11.34512100000000	0.00000000000000	0.00000000000000	0.00000000000000	0.00000000000000	
18.79326400000000	0.52102900000000	713.78532600000005	42.02187700000000	0.12612000000000	0.00000000000000	0.11352300000000	0.00000000000000	0.00000000000000	0.00000000000000	0.00000000000000	0.00000000000000	0.00000000000000	0.00000000000000	11.46645900000000	0.00000000000000	0.00000000000000	0.00000000000000	0.00000000000000	
18.79493000000000	-0.03403000000000	715.32881499999996	42.16162400000000	0.12510100000000	0.00000000000000	0.11352800000000	0.00000000000000	0.00000000000000	0.00000000000000	0.00000000000000	0.00000000000000	0.00000000000000	0.00000000000000	11.59157300000000	0.00000000000000	0.00000000000000	0.00000000000000	0.00000000000000	
18.79659400000000	-0.60368300000000	716.89499999999998	42.30465800000000	0.12407500000000	0.00000000000000	0.11353300000000	0.00000000000000	0.00000000000000	0.00000000000000	0.00000000000000	0.00000000000000	0.00000000000000	0.00000000000000	11.72036400000000	0.00000000000000	0.00000000000000	0.00000000000000	0.00000000000000	
18.79826700000000	-1.18787000000000	718.48395300000004	42.45082900000000	0.12304400000000	0.00000000000000	0.11353800000000	0.00000000000000	0.00000000000000	0.00000000000000	0.00000000000000	0.00000000000000	0.00000000000000	0.00000000000000	11.85272600000000	0.00000000000000	0.00000000000000	0.00000000000000	0.00000000000000	
18.79993600000000	-1.78648400000000	720.09580700000004	42.60000100000000	0.12200700000000	0.00000000000000	0.11354400000000	0.00000000000000	0.00000000000000	0.00000000000000	0.00000000000000	0.00000000000000	0.00000000000000	0.00000000000000	11.98854700000000	0.00000000000000	0.00000000000000	0.00000000000000	0.00000000000000	
18.80160300000000	-2.39937600000000	721.73073999999997	42.75204900000000	0.12096500000000	0.00000000000000	0.11354900000000	0.00000000000000	0.00000000000000	0.00000000000000	0.00000000000000	0.00000000000000	0.00000000000000	0.00000000000000	12.12770600000000	0.00000000000000	0.00000000000000	0.00000000000000	0.00000000000000	
18.80326500000000	-3.02635100000000	723.38897599999996	42.90686200000000	0.11991900000000	0.00000000000000	0.11355600000000	0.00000000000000	0.00000000000000	0.00000000000000	0.00000000000000	0.00000000000000	0.00000000000000	0.00000000000000	12.27007800000000	0.00000000000000	0.00000000000000	0.00000000000000	0.00000000000000	
18.80493800000000	-3.66717300000000	725.07076500000005	43.06434000000000	0.11886800000000	0.00000000000000	0.11356200000000	0.00000000000000	0.00000000000000	0.00000000000000	0.00000000000000	0.00000000000000	0.00000000000000	0.00000000000000	12.41552800000000	0.00000000000000	0.00000000000000	0.00000000000000	0.00000000000000	
18.80660100000000	-4.32156200000000	726.77638100000001	43.22439800000000	0.11781300000000	0.00000000000000	0.11356800000000	0.00000000000000	0.00000000000000	0.00000000000000	0.00000000000000	0.00000000000000	0.00000000000000	0.00000000000000	12.56391700000000	0.00000000000000	0.00000000000000	0.00000000000000	0.00000000000000	
18.80827000000000	-4.98919800000000	728.50610900000004	43.38696100000000	0.11675500000000	0.00000000000000	0.11357500000000	0.00000000000000	0.00000000000000	0.00000000000000	0.00000000000000	0.00000000000000	0.00000000000000	0.00000000000000	12.71509700000000	0.00000000000000	0.00000000000000	0.00000000000000	0.00000000000000	
18.80993200000000	-5.66971800000000	730.26023499999997	43.55196600000000	0.11569400000000	0.00000000000000	0.11358300000000	0.00000000000000	0.00000000000000	0.00000000000000	0.00000000000000	0.00000000000000	0.00000000000000	0.00000000000000	12.86891500000000	0.00000000000000	0.00000000000000	0.00000000000000	0.00000000000000	
18.81160200000000	-6.36271900000000	732.03903700000001	43.71936200000000	0.11463000000000	0.00000000000000	0.11359000000000	0.00000000000000	0.00000000000000	0.00000000000000	0.00000000000000	0.00000000000000	0.00000000000000	0.00000000000000	13.02520800000000	0.00000000000000	0.00000000000000	0.00000000000000	0.00000000000000	
18.81326700000000	-7.06776200000000	733.84277499999996	43.88911100000000	0.11356400000000	0.00000000000000	0.11359800000000	0.00000000000000	0.00000000000000	0.00000000000000	0.00000000000000	0.00000000000000	0.00000000000000	0.00000000000000	13.18381200000000	0.00000000000000	0.00000000000000	0.00000000000000	0.00000000000000	
18.81493500000000	-7.78436600000000	735.67167700000005	44.06118400000000	0.11249600000000	0.00000000000000	0.11360600000000	0.00000000000000	0.00000000000000	0.00000000000000	0.00000000000000	0.00000000000000	0.00000000000000	0.00000000000000	13.34455000000000	0.00000000000000	0.00000000000000	0.00000000000000	0.00000000000000	
18.81660100000000	-8.51201500000000	737.52593400000001	44.23556500000000	0.11142700000000	0.00000000000000	0.11361400000000	0.00000000000000	0.00000000000000	0.00000000000000	0.00000000000000	0.00000000000000	0.00000000000000	0.00000000000000	13.50724500000000	0.00000000000000	0.00000000000000	0.00000000000000	0.00000000000000	
18.81826100000000	-9.25015900000000	739.40569000000005	44.41224600000000	0.11035700000000	0.00000000000000	0.11362300000000	0.00000000000000	0.00000000000000	0.00000000000000	0.00000000000000	0.00000000000000	0.00000000000000	0.00000000000000	13.67171000000000	0.00000000000000	0.00000000000000	0.00000000000000	0.00000000000000	
18.81993900000000	-9.99821300000000	741.31102799999996	44.59123000000000	0.10928600000000	0.00000000000000	0.11363200000000	0.00000000000000	0.00000000000000	0.00000000000000	0.00000000000000	0.00000000000000	0.00000000000000	0.00000000000000	13.83775200000000	0.00000000000000	0.00000000000000	0.00000000000000	0.00000000000000	
18.82160000000000	-10.75555900000000	743.24196199999994	44.77253100000000	0.10821600000000	0.00000000000000	0.11364100000000	0.00000000000000	0.00000000000000	0.00000000000000	0.00000000000000	0.00000000000000	0.00000000000000	0.00000000000000	14.00517500000000	0.00000000000000	0.00000000000000	0.00000000000000	0.00000000000000	
18.82326200000000	-11.52154900000000	745.19843300000002	44.95616900000000	0.10714600000000	0.00000000000000	0.11365100000000	0.00000000000000	0.00000000000000	0.00000000000000	0.00000000000000	0.00000000000000	0.00000000000000	0.00000000000000	14.17377500000000	0.00000000000000	0.00000000000000	0.00000000000000	0.00000000000000	
18.82493800000000	-12.29550600000000	747.18029400000000	45.14217500000000	0.10607700000000	0.00000000000000	0.11366100000000	0.00000000000000	0.00000000000000	0.00000000000000	0.00000000000000	0.00000000000000	0.00000000000000	0.00000000000000	14.34334400000000	0.00000000000000	0.00000000000000	0.00000000000000	0.00000000000000	
18.82659500000000	-13.07672400000000	749.18730400000004	45.33058400000000	0.10500900000000	0.00000000000000	0.11367100000000	0.00000000000000	0.00000000000000	0.00000000000000	0.00000000000000	0.00000000000000	0.00000000000000	0.00000000000000	14.51366900000000	0.00000000000000	0.00000000000000	0.00000000000000	0.00000000000000	
18.82826800000000	-13.86447400000000	751.21912199999997	45.52144200000000	0.10394300000000	0.00000000000000	0.11368200000000	0.00000000000000	0.00000000000000	0.00000000000000	0.00000000000000	0.00000000000000	0.00000000000000	0.00000000000000	14.68453400000000	0.00000000000000	0.00000000000000	0.00000000000000	0.00000000000000	
18.82994300000000	-14.65800200000000	753.27529700000002	45.71479900000000	0.10287900000000	0.00000000000000	0.11369300000000	0.00000000000000	0.00000000000000	0.00000000000000	0.00000000000000	0.00000000000000	0.00000000000000	0.00000000000000	14.85571500000000	0.00000000000000	0.00000000000000	0.00000000000000	0.00000000000000	
18.83159600000000	-15.45653100000000	755.35526300000004	45.91070900000000	0.10181800000000	0.00000000000000	0.11370400000000	0.00000000000000	0.00000000000000	0.00000000000000	0.00000000000000	0.00000000000000	0.00000000000000	0.00000000000000	15.02698800000000	0.00000000000000	0.00000000000000	0.00000000000000	0.00000000000000	
